<?xml version="1.0" encoding="UTF-8"?>
<svg id="Capa_2" data-name="Capa 2" xmlns="http://www.w3.org/2000/svg" viewBox="0 0 113.33 54.15">
  <defs>
    <style>
      .cls-1 {
        fill: #fffef6;
      }
    </style>
  </defs>
  <g id="Capa_1-2" data-name="Capa 1">
    <g>
      <path class="cls-1" d="M102.13,28.33c5.27-6.51,9.33-17.87,1.77-24.28-3.27-2.77-7.67-3.6-11.79-4.06h-3.24c-16.44.89-36.04,11.85-45.5,25.33-.23.32-1.77,2.55-1.65,2.7,6.52-5.52,13.93-10.02,21.91-13.1,8.56-3.3,19.88-5.69,28.81-2.66,7.07,2.4,11.11,8.53,9.69,16.05Z"/>
      <path class="cls-1" d="M3.54,38.57l.68-2.27c-1.57,2.05-2.98,4.43-3.68,6.94-.16.58-.46,1.66-.52,2.21-.08.75.06,1.6,0,2.36.48,2.11,1.37,3.8,3.25,4.93,1.34.81,2.74,1.12,4.26,1.41h2.95c1.63-.13,3.69-.66,5.27-1.14,6.11-1.87,11.92-5.87,16.24-10.51l-5.01,3.17c-8.03,5.11-26.62,8.11-23.45-7.11Z"/>
      <path class="cls-1" d="M10.29,40.41c.99,0,2.43-.24,3.68-1.39,1.55-1.43,2.68-4.64,2.68-7.62.02-1.34-.26-2.36-.84-3.14-.63-.83-1.7-1.29-3-1.29-.54,0-1.12.06-1.74.18h-.08s-2.57,12.97-2.57,12.97l-.02.11.11.03c.46.11.97.16,1.79.16ZM9.61,39.42l2.27-11.45c.2-.03.41-.06.8-.06,1.96,0,2.87,1.11,2.87,3.49,0,2.55-.92,5.48-2.1,6.67-.95.97-1.92,1.4-3.15,1.4-.25,0-.51-.03-.7-.06Z"/>
      <path class="cls-1" d="M19.58,40.47c.67,0,1.4-.23,2.05-.64l.08-.05-.33-.85-.12.08c-.42.26-.89.51-1.53.51-.79,0-1.29-.48-1.48-1.44-.13-.64-.03-1.86.02-2.25,2.97-.09,4.75-1.29,4.75-3.22,0-1.23-.66-1.96-1.78-1.96-2.76,0-4.15,4.2-4.15,6.55,0,2.15.86,3.28,2.49,3.28ZM18.49,34.89c.74-2.42,1.82-3.29,2.58-3.29.71,0,.86.56.86,1.03,0,1.83-2.09,2.21-3.45,2.26Z"/>
      <path class="cls-1" d="M26.03,40.47c.6,0,1.12-.09,1.56-.28l.09-.04-.19-.93-.13.05c-.39.16-.79.24-1.14.24-1.12,0-1.64-.8-1.64-2.52,0-2.21,1.26-5.4,3.53-5.4.32,0,.53.07.67.13l.12.05.32-.91-.08-.05c-.18-.1-.51-.17-.86-.17-3.27,0-4.79,3.81-4.79,6.39,0,2.25.88,3.44,2.56,3.44Z"/>
      <polygon class="cls-1" points="29.85 40.35 31.79 30.79 30.74 30.79 28.81 40.35 29.85 40.35"/>
      <path class="cls-1" d="M31.6,29.34c.46,0,.81-.31.87-.78.04-.25-.01-.47-.14-.62-.12-.14-.3-.22-.53-.22-.41,0-.79.36-.83.8-.04.25.01.46.14.61.11.13.29.21.49.21Z"/>
      <path class="cls-1" d="M35.78,30.64c-1.63,0-2.82,1.15-2.82,2.74,0,.76.44,1.53,1.35,2.36.51.46.98,1.03.98,1.99,0,1.05-.73,1.78-1.76,1.78-.66,0-1.11-.24-1.43-.45l-.11-.07-.43.86.06.06c.24.23,1.04.56,1.78.56,1.43,0,2.96-.79,2.96-3.01,0-1.11-.78-1.98-1.37-2.53-.47-.45-.97-.92-.97-1.74,0-.97.64-1.59,1.64-1.59.37,0,.76.1,1.07.28l.11.06.4-.86-.08-.06c-.31-.22-.87-.37-1.4-.37Z"/>
      <path class="cls-1" d="M40.93,27.94c-.12-.14-.3-.22-.53-.22-.42,0-.79.36-.83.8-.04.25.01.46.14.61.11.13.29.21.49.21.46,0,.81-.31.87-.78.04-.25-.01-.47-.14-.62Z"/>
      <polygon class="cls-1" points="37.41 40.35 38.45 40.35 40.38 30.79 39.34 30.79 37.41 40.35"/>
      <path class="cls-1" d="M45.11,30.64c-2.95,0-4.17,4.31-4.17,6.62,0,2.09.75,3.24,2.1,3.24,3.08,0,4.11-4.71,4.11-6.86,0-2.49-1.11-3.01-2.04-3.01ZM46.06,33.69c0,1.67-.84,5.86-2.83,5.86-1,0-1.19-.9-1.19-2.44,0-1.87,1.03-5.51,2.93-5.51.76,0,1.09.63,1.09,2.1Z"/>
      <path class="cls-1" d="M52.71,30.64c-.95,0-1.75.48-2.51,1.52l.17-1.36h-.98l-.04.3c-.08.68-.21,1.71-.49,3.07l-1.21,6.18h1.04l1.08-5.45c.34-1.73,1.62-3.3,2.67-3.3.6,0,.88.3.88.95,0,.57-.06.99-.16,1.45l-1.26,6.36h1.04l1.27-6.42c.1-.46.17-.83.17-1.4,0-.87-.44-1.89-1.67-1.89Z"/>
      <path class="cls-1" d="M65.72,28.26c-.63-.83-1.7-1.29-3-1.29-.54,0-1.12.06-1.74.18h-.08s-2.57,12.97-2.57,12.97l-.02.11.11.03c.46.11.97.16,1.79.16.99,0,2.43-.24,3.68-1.39,1.55-1.43,2.68-4.64,2.68-7.62.02-1.34-.26-2.36-.84-3.14ZM65.46,31.4c0,2.55-.92,5.48-2.1,6.67-.95.97-1.92,1.4-3.15,1.4-.25,0-.51-.03-.7-.06l2.27-11.45c.19-.03.41-.06.8-.06,1.96,0,2.87,1.11,2.87,3.49Z"/>
      <path class="cls-1" d="M72.46,30.79l-2.43,5.78c-.07.16-.14.33-.21.5-.19.46-.4.93-.58,1.43-.03-.36-.04-.65-.06-.94-.02-.32-.04-.62-.07-.99l-.48-5.78h-1.06l.79,8.87c.02.2.02.32-.07.53-.35.82-1.1,1.84-1.71,2.32-.64.54-1.24.83-1.54.95l-.12.05.42.9.1-.03c.36-.11.88-.41,1.47-.86,1.21-.95,2.19-2.4,3.25-4.86l3.41-7.87h-1.12Z"/>
      <path class="cls-1" d="M78.15,30.64c-.95,0-1.75.48-2.51,1.52l.17-1.36h-.98l-.04.3c-.08.68-.21,1.71-.49,3.08l-1.21,6.18h1.04l1.08-5.45c.34-1.73,1.62-3.3,2.67-3.3.6,0,.88.3.88.95,0,.57-.06.99-.16,1.45l-1.26,6.36h1.04l1.27-6.42c.1-.46.17-.83.17-1.4,0-.87-.44-1.89-1.67-1.89Z"/>
      <path class="cls-1" d="M86.14,30.64c-3.63,0-5.32,4.31-5.32,7.23,0,1.68.65,2.64,1.78,2.64.65,0,1.45-.22,2.48-1.77-.01.13-.03.25-.04.37-.05.43-.09.77-.1,1.12v.12s1.04,0,1.04,0v-.12c-.02-1.02.13-2.36.42-3.78l1.17-5.42.02-.09-.08-.04c-.3-.16-.84-.27-1.37-.27ZM86.37,31.64l-.78,3.72c-.41,1.98-1.69,4.2-2.79,4.2-.21,0-.38-.07-.51-.2-.27-.28-.4-.89-.37-1.79.06-2.44,1.5-5.96,3.93-5.96.22,0,.38.01.52.04Z"/>
      <path class="cls-1" d="M96.82,30.64c-.87,0-1.73.55-2.45,1.54-.12-.77-.6-1.54-1.64-1.54-.85,0-1.64.51-2.37,1.51l.17-1.35h-.98l-.04.3c-.08.68-.21,1.71-.49,3.07l-1.22,6.18h1.04l1.08-5.45c.33-1.67,1.6-3.3,2.57-3.3.55,0,.82.31.82.95,0,.57-.06.99-.16,1.45l-1.26,6.36h1.04l1.08-5.45c.36-1.79,1.54-3.3,2.57-3.3.55,0,.82.31.82.95,0,.57-.06.99-.16,1.45l-1.26,6.36h1.04l1.23-6.23c.13-.63.21-1.11.21-1.6,0-.87-.43-1.89-1.65-1.89Z"/>
      <polygon class="cls-1" points="99.22 40.35 100.26 40.35 102.19 30.79 101.15 30.79 99.22 40.35"/>
      <path class="cls-1" d="M107.41,31.59c.32,0,.53.07.67.13l.12.05.32-.91-.08-.05c-.18-.1-.51-.17-.86-.17-3.27,0-4.79,3.81-4.79,6.39,0,2.25.88,3.44,2.55,3.44.6,0,1.12-.09,1.56-.28l.09-.04-.19-.93-.13.05c-.39.16-.79.24-1.14.24-1.12,0-1.64-.8-1.64-2.52,0-2.21,1.26-5.4,3.53-5.4Z"/>
      <path class="cls-1" d="M113.25,31.01c-.31-.22-.87-.37-1.4-.37-1.63,0-2.82,1.15-2.82,2.74,0,.76.44,1.53,1.35,2.36.51.46.98,1.03.98,1.99,0,1.05-.73,1.78-1.77,1.78-.66,0-1.11-.24-1.43-.45l-.11-.07-.43.86.06.06c.24.23,1.04.56,1.78.56,1.43,0,2.96-.79,2.96-3.01,0-1.11-.78-1.98-1.37-2.53-.47-.45-.97-.92-.97-1.74,0-.97.64-1.59,1.64-1.59.37,0,.76.1,1.07.28l.11.06.4-.86-.08-.06Z"/>
    </g>
  </g>
</svg>