<?xml version="1.0" encoding="UTF-8"?>
<svg id="Capa_2" data-name="Capa 2" xmlns="http://www.w3.org/2000/svg" viewBox="0 0 69.13 68.9">
  <defs>
    <style>
      .cls-1 {
        fill: #fffef6;
      }
    </style>
  </defs>
  <g id="Capa_1-2" data-name="Capa 1">
    <path class="cls-1" d="M48.94,24.05c-6.02,1.72-12.58,6.43-12.58,6.43.89-7.35,4.21-14.14,9.42-19.33,2.34-2.33,6.42-2.49,8.93-.34.61.53,1.19,1.07,1.76,1.64,1.03,1.04,2,2.13,2.86,3.29,1.59.07,3.08.22,4.29.37-1.36-2.17-2.97-4.19-4.8-6.02-2.39-2.38-5.09-4.4-8.03-5.98C42.81-.2,33.25-1.17,24.54,1.43c-5.43,1.63-10.42,4.62-14.46,8.65-2.39,2.4-4.4,5.1-5.99,8.04C.67,24.48-.64,31.84.29,38.98c1.5,11.46,21.06,8.31,32.26-.61-.87,7.38-4.21,14.18-9.44,19.39-2.41,2.4-6.33,2.57-8.91.35-.61-.52-1.2-1.07-1.77-1.64-1.06-1.06-2.04-2.18-2.92-3.38-1.76-.12-3.29-.33-4.36-.49,1.38,2.25,3.04,4.33,4.93,6.22,2.38,2.39,5.09,4.41,8.03,5.99l1.26.67.02-.03c4.7,2.28,9.89,3.45,15.1,3.45,3.32,0,6.66-.47,9.87-1.44,5.43-1.62,10.43-4.61,14.46-8.64,2.39-2.38,4.4-5.09,5.99-8.03,2.7-5.02,13.94-34.19-15.87-26.74ZM10,42.94c-4.03.09-6.4-1.98-6.6-6.19-.22-4.68.47-10.02,2.44-14.62,6.02,7.73,14.83,12.65,24.51,13.75-5.82,4.59-12.99,6.9-20.35,7.06ZM11.14,23.12c-2.41-2.42-2.57-6.32-.35-8.91.52-.61,1.07-1.2,1.64-1.77,3-3,6.59-5.36,10.49-6.91t.01,0c-1.21,9.7,1.54,19.42,7.61,27.04-7.38-.88-14.19-4.21-19.4-9.44ZM25.99,9.97c0-3.41,2.66-6.29,6.06-6.55,5.01-.38,10.1.45,14.71,2.43-7.72,6.02-12.64,14.83-13.74,24.5-4.6-5.83-7.05-13-7.04-20.38ZM36.85,65.49c-5.01.38-10.09-.45-14.71-2.43,7.72-6.02,12.64-14.83,13.74-24.5,4.59,5.83,7.04,13,7.04,20.37,0,3.42-2.66,6.3-6.07,6.56ZM58.11,54.71c-.52.61-1.07,1.2-1.64,1.76-3,3-6.59,5.36-10.49,6.91.18-1.49.27-2.97.27-4.46,0-8.17-2.76-16.12-7.89-22.57,7.37.87,14.18,4.21,19.39,9.44,2.33,2.34,2.5,6.42.35,8.92ZM63.06,46.77c-6.02-7.72-14.83-12.64-24.5-13.75.05-.03,5.42-4.44,12.42-6.28,2.73-.72,5.71-1.05,8.71-.58,3.19.5,5.64,3.15,5.83,6.36.19,3.13-.09,6.27-.83,9.31-.41,1.68-.95,3.33-1.64,4.93Z"/>
  </g>
</svg>