<?xml version="1.0" encoding="UTF-8"?>
<svg id="Capa_2" data-name="Capa 2" xmlns="http://www.w3.org/2000/svg" viewBox="0 0 291.34 80.59">
  <defs>
    <style>
      .cls-1 {
        fill: #002411;
      }
    </style>
  </defs>
  <g id="Capa_1-2" data-name="Capa 1">
    <g>
      <path class="cls-1" d="M122.25,42.41c-1.88-.98-4.13-1.86-6.73-2.63-2.15-.65-4.06-1.33-5.73-2.04-1.67-.71-2.99-1.57-3.96-2.59s-1.45-2.31-1.45-3.87c0-2.09.79-3.59,2.36-4.5,1.57-.92,3.8-1.38,6.69-1.38s5.29.55,6.87,1.66c1.57,1.11,2.36,2.97,2.36,5.6v1.83h5.11v-2.02c0-2.52-.59-4.61-1.78-6.27-1.18-1.66-2.86-2.9-5.02-3.72-2.16-.82-4.7-1.23-7.63-1.23-2.77,0-5.2.39-7.29,1.16-2.09.77-3.72,1.91-4.88,3.4-1.16,1.49-1.75,3.32-1.75,5.48s.55,4.09,1.66,5.62c1.11,1.54,2.62,2.83,4.54,3.87,1.92,1.04,4.11,1.91,6.55,2.59,2.17.59,4.07,1.25,5.7,1.96,1.63.71,2.91,1.57,3.84,2.59.93,1.02,1.39,2.29,1.39,3.82,0,2.18-.81,3.75-2.42,4.72-1.61.97-3.99,1.46-7.14,1.46s-5.36-.61-6.96-1.82c-1.59-1.21-2.39-3.2-2.39-5.95v-1.75h-5.11v1.83c0,2.63.58,4.82,1.73,6.58,1.15,1.76,2.81,3.08,4.97,3.95,2.16.87,4.76,1.31,7.81,1.31s5.59-.41,7.75-1.24c2.16-.83,3.82-2.02,4.99-3.59,1.16-1.56,1.75-3.45,1.75-5.66s-.5-4.05-1.51-5.5c-1.01-1.46-2.45-2.67-4.33-3.65Z"/>
      <path class="cls-1" d="M158.51,60.83c-.19-.33-.37-.77-.54-1.31-.13-.45-.22-.97-.27-1.57-.05-.59-.08-1.2-.08-1.83v-14.29c0-2.05-.56-3.77-1.66-5.16-1.1-1.4-2.6-2.45-4.47-3.16-1.88-.71-3.99-1.06-6.33-1.06-2.55,0-4.8.39-6.76,1.18s-3.48,1.94-4.57,3.44c-1.1,1.5-1.65,3.32-1.65,5.46h4.53c0-2.07.74-3.56,2.21-4.49,1.47-.92,3.54-1.38,6.2-1.38s4.5.41,5.85,1.22c1.35.82,2.03,2.05,2.03,3.71v.08c0,.79-.75,1.36-2.24,1.71-1.49.35-4,.7-7.52,1.06-2.34.23-4.39.7-6.15,1.4-1.76.7-3.12,1.68-4.1,2.92-.97,1.25-1.45,2.81-1.45,4.68s.45,3.34,1.34,4.63c.9,1.28,2.16,2.27,3.79,2.95,1.63.68,3.52,1.02,5.71,1.02,1.91,0,3.61-.21,5.12-.62,1.51-.41,2.8-.99,3.87-1.73.7-.49,1.28-1.03,1.77-1.62.01.09.01.17.03.25.07.55.17,1,.29,1.36.16.45.33.84.51,1.17.18.33.31.54.4.64h4.61c-.13-.13-.29-.35-.49-.69ZM153.01,50.4c0,1.66-.44,3.04-1.32,4.15-.88,1.12-2.07,1.96-3.56,2.52-1.5.57-3.17.85-5.02.85-2.37,0-4.13-.39-5.26-1.2-1.13-.8-1.7-1.98-1.7-3.54,0-1.66.69-2.84,2.07-3.54,1.37-.7,3.42-1.18,6.13-1.42,1.87-.18,3.67-.41,5.38-.69l.39-.07c1.51-.24,2.89.92,2.89,2.46v.47Z"/>
      <path class="cls-1" d="M178.94,32.87l-6.78,21.55c-.21.65-1.13.66-1.34,0l-6.93-21.55h-4.8l9.87,28.81-.86,2.54c-.34,1.02-.78,1.95-1.32,2.76-.54.82-1.2,1.47-2,1.94-.79.48-1.76.71-2.91.71-.54,0-1.08-.04-1.62-.11-.54-.07-.93-.16-1.16-.27v3.99c.14.07.51.15,1.11.23.59.08,1.25.12,1.97.12,2.28,0,4.12-.44,5.52-1.32,1.39-.88,2.51-2.05,3.34-3.51.84-1.46,1.55-3.06,2.14-4.8l10.49-31.1h-4.72Z"/>
      <path class="cls-1" d="M207.61,60.62c-1.18-.44-2.54-.73-4.09-.85l-10.11-.81c-1.55-.13-2.58-.4-3.1-.82-.52-.42-.78-.97-.78-1.63,0-.74.33-1.38.98-1.93.15-.13.3-.24.45-.34,1.79.78,3.88,1.16,6.28,1.16,2.61,0,4.8-.49,6.57-1.49,1.77-1,3.17-2.35,4.19-4.05,1.03-1.7,1.7-3.61,2.03-5.71l1.78-11.28h-4.31s0,0,0,0c-.19,1.5-1.85,2.31-3.16,1.56l-.6-.35h0c-.31-.16-.63-.33-.98-.49-1.65-.76-3.58-1.14-5.8-1.14-2.46,0-4.65.51-6.55,1.52-1.91,1.02-3.39,2.4-4.46,4.16-1.07,1.75-1.61,3.73-1.61,5.92s.51,4.09,1.54,5.81c.55.92,1.22,1.73,2.03,2.43-.27.16-.56.38-.86.66-.57.54-1.06,1.18-1.48,1.96-.42.77-.63,1.59-.63,2.45,0,1.4.57,2.6,1.71,3.57,1.14.98,2.62,1.55,4.43,1.69l10.9.81c1.44.11,2.65.3,3.63.58.98.27,1.46,1,1.46,2.17,0,.78-.35,1.45-1.05,2.03-.7.58-1.77,1.02-3.21,1.32-1.44.31-3.28.46-5.53.46-3,0-5.32-.29-6.96-.88-1.64-.58-2.45-1.6-2.45-3.04,0-.54.07-1.01.2-1.41.14-.41.27-.71.42-.91l-4.37-.64c-.22.34-.41.78-.58,1.33-.17.55-.25,1.18-.25,1.91,0,2.28,1.16,4.08,3.48,5.4,2.32,1.32,5.75,1.98,10.3,1.98,3.22,0,5.89-.33,8.01-1,2.12-.66,3.71-1.59,4.75-2.76,1.04-1.18,1.56-2.53,1.56-4.06,0-1.38-.33-2.5-1-3.36-.66-.86-1.59-1.5-2.76-1.94ZM189.9,40.08c.71-1.12,1.7-1.99,2.96-2.6,1.27-.62,2.73-.93,4.38-.93s3.22.3,4.47.9c1.25.6,2.21,1.45,2.88,2.56.68,1.1,1.02,2.41,1.02,3.93s-.34,2.89-1.02,3.99c-.67,1.1-1.63,1.93-2.88,2.51-1.25.58-2.75.86-4.49.86s-3.24-.29-4.49-.86c-1.25-.58-2.21-1.4-2.89-2.49-.67-1.08-1.01-2.39-1.01-3.92s.35-2.82,1.07-3.94Z"/>
      <path class="cls-1" d="M240.43,39.49c-1.15-2.19-2.78-3.91-4.91-5.16-2.12-1.26-4.63-1.89-7.52-1.89s-5.36.63-7.58,1.89c-2.21,1.26-3.95,3-5.2,5.22-1.26,2.22-1.89,4.8-1.89,7.73s.63,5.45,1.88,7.68c1.25,2.23,2.97,3.97,5.16,5.23,2.19,1.26,4.73,1.89,7.6,1.89,2.17,0,4.1-.27,5.77-.84,1.67-.56,3.08-1.3,4.23-2.22,1.15-.93,2.04-1.96,2.67-3.09.64-1.13.99-2.27,1.08-3.42h-4.59c-.07.63-.29,1.26-.68,1.89-.37.63-.93,1.21-1.66,1.74-.72.54-1.65.96-2.76,1.27-1.12.31-2.43.47-3.94.47-2.12,0-3.95-.43-5.5-1.29-1.55-.86-2.74-2.09-3.58-3.7-.11-.21-.21-.43-.31-.66-.65-1.51.48-3.2,2.13-3.2h21.2c.04-.17.07-.48.08-.94.02-.47.03-.85.03-1.14,0-2.79-.58-5.27-1.73-7.46ZM221.12,44.93c-1.73,0-2.88-1.85-2.06-3.36,0,0,.01-.02.01-.03.87-1.58,2.07-2.8,3.62-3.66,1.55-.86,3.33-1.29,5.36-1.29s3.71.41,5.07,1.24c1.37.83,2.4,1.93,3.09,3.3.59,1.16.92,2.43,1.01,3.79h-16.11Z"/>
      <path class="cls-1" d="M266.17,47.76c-1.02-.63-2.19-1.15-3.52-1.55-1.33-.4-2.74-.74-4.23-1.01-1.67-.31-3.12-.64-4.36-1.01-1.23-.37-2.18-.84-2.86-1.43-.67-.58-1.01-1.36-1.01-2.33s.36-1.73,1.08-2.29c.72-.56,1.63-.96,2.72-1.2,1.1-.24,2.21-.36,3.34-.36,1.2,0,2.34.17,3.4.5,1.06.33,1.92.84,2.59,1.51.67.67,1,1.53,1,2.58v.4h4.59v-.54c0-1.85-.54-3.41-1.6-4.68-1.07-1.27-2.49-2.23-4.25-2.9-1.76-.66-3.69-1-5.77-1s-4.12.32-5.88.96c-1.76.64-3.16,1.56-4.19,2.78-1.03,1.21-1.55,2.69-1.55,4.44,0,1.35.29,2.5.88,3.47.58.96,1.38,1.77,2.4,2.41,1.02.65,2.18,1.17,3.49,1.58,1.31.4,2.7.73,4.15.98,2.77.47,4.85,1.02,6.24,1.66,1.39.64,2.09,1.7,2.09,3.2,0,.9-.33,1.65-.98,2.24-.66.59-1.55,1.03-2.68,1.32-1.13.29-2.42.43-3.86.43-2.34,0-4.18-.38-5.53-1.15-1.35-.76-2.02-1.87-2.02-3.33v-.59h-4.61v.84c0,1.35.3,2.54.9,3.59.6,1.04,1.45,1.92,2.54,2.63,1.09.71,2.36,1.25,3.83,1.62,1.47.37,3.06.55,4.79.55s3.21-.18,4.68-.53c1.47-.35,2.76-.88,3.88-1.58,1.12-.7,2-1.57,2.64-2.62.64-1.04.96-2.27.96-3.67s-.29-2.56-.88-3.52c-.58-.96-1.38-1.76-2.4-2.39Z"/>
      <path class="cls-1" d="M282.38,50.81v-13.89h8.95v-4.05h-8.95v-9.49h-4.61v6.5c0,.72-.02,1.28-.05,1.69-.04.4-.13.7-.28.89-.15.19-.4.31-.74.35-.34.05-.82.07-1.43.07h-4.48v4.05h3.4c1.98,0,3.58,1.6,3.58,3.58v14.24c0,1.49.2,2.71.59,3.65.4.94.93,1.67,1.61,2.18.67.51,1.43.87,2.28,1.07.84.2,1.71.3,2.59.3.68,0,1.3-.05,1.85-.15.55-.1.98-.2,1.28-.31v-3.99c-.23.09-.58.18-1.05.27-.47.09-.96.14-1.48.14-1.29,0-2.13-.43-2.5-1.29-.37-.86-.55-2.06-.55-3.59v-2.21Z"/>
      <path class="cls-1" d="M57.25,28.13c-7.04,2.01-14.71,7.52-14.71,7.52,1.04-8.6,4.93-16.53,11.02-22.61,2.74-2.73,7.51-2.92,10.44-.4.71.62,1.39,1.25,2.06,1.91,1.21,1.22,2.34,2.49,3.35,3.85,1.86.09,3.6.25,5.02.43-1.59-2.54-3.47-4.9-5.62-7.04-2.8-2.79-5.96-5.15-9.4-7C50.08-.24,38.89-1.37,28.7,1.68c-6.35,1.91-12.19,5.4-16.91,10.11-2.8,2.8-5.15,5.97-7,9.4C.78,28.63-.75,37.25.34,45.59c1.75,13.4,24.63,9.72,37.73-.71-1.02,8.63-4.92,16.59-11.04,22.68-2.82,2.81-7.4,3-10.43.41-.72-.61-1.4-1.25-2.07-1.92-1.24-1.24-2.38-2.55-3.41-3.95-2.05-.14-3.85-.38-5.1-.58,1.62,2.63,3.55,5.07,5.77,7.28,2.79,2.8,5.95,5.16,9.39,7l1.48.79.02-.03c5.5,2.67,11.57,4.03,17.66,4.03,3.89,0,7.79-.55,11.54-1.69,6.35-1.9,12.2-5.39,16.91-10.11,2.8-2.79,5.15-5.95,7-9.4,3.16-5.87,16.3-39.99-18.56-31.27ZM11.7,50.22c-4.71.1-7.49-2.32-7.72-7.24-.26-5.47.55-11.72,2.86-17.1,7.04,9.04,17.35,14.8,28.67,16.08-6.81,5.37-15.19,8.07-23.8,8.25ZM13.04,27.04c-2.82-2.83-3-7.4-.41-10.43.61-.72,1.25-1.4,1.91-2.07,3.5-3.5,7.71-6.27,12.27-8.08t.01,0c-1.41,11.35,1.8,22.72,8.9,31.63-8.63-1.03-16.59-4.93-22.69-11.04ZM30.4,11.66c0-3.99,3.11-7.36,7.09-7.66,5.87-.45,11.81.52,17.21,2.84-9.03,7.04-14.79,17.34-16.07,28.66-5.38-6.82-8.25-15.21-8.23-23.84ZM43.11,76.6c-5.87.44-11.8-.52-17.21-2.84,9.03-7.04,14.79-17.34,16.07-28.65,5.37,6.82,8.24,15.2,8.24,23.82,0,4-3.12,7.37-7.1,7.67ZM67.97,63.99c-.61.71-1.25,1.4-1.91,2.06-3.5,3.5-7.71,6.27-12.27,8.08.21-1.74.31-3.48.31-5.22,0-9.56-3.22-18.85-9.22-26.4,8.62,1.02,16.59,4.93,22.68,11.04,2.73,2.74,2.92,7.5.41,10.43ZM73.76,54.7c-7.04-9.03-17.35-14.79-28.66-16.08.06-.04,6.33-5.19,14.53-7.34,3.19-.84,6.68-1.22,10.19-.68,3.73.58,6.59,3.69,6.82,7.44.22,3.66-.11,7.34-.97,10.89-.47,1.97-1.11,3.9-1.91,5.77Z"/>
    </g>
  </g>
</svg>